# xmcd
#
# Track frame offsets:
#	150
#	18375
#	42373
#	60499
#	79868
#	97882
#	115002
#	134642
#	152319
#	174569
#	190093
#	205967
#	225081
#
# Disc length: 3261 seconds
#
# Revision: 2
# Processed by: cddbd v1.5.2PL0 Copyright (c) Steve Scherf et al.
# Submitted via: EasyCDDAExtractor 10.0.1.1
#
DISCID=980cbb0d
DTITLE=Da G Bhann - Disturbance
DYEAR=2006
DGENRE=Soca
TTITLE0=Take Your Time
TTITLE1=One More Chance
TTITLE2=Take It Easy
TTITLE3=Colours In The Sky
TTITLE4=Jump As One
TTITLE5=Disturbance
TTITLE6=Creed Nor Class
TTITLE7=Energy
TTITLE8=Heavy Roller
TTITLE9=Wine On You
TTITLE10=Feelings
TTITLE11=Man Belly
TTITLE12=Never To Much
EXTD=
EXTT0=
EXTT1=
EXTT2=
EXTT3=
EXTT4=
EXTT5=
EXTT6=
EXTT7=
EXTT8=
EXTT9=
EXTT10=
EXTT11=
EXTT12=
PLAYORDER=
